<?xml version="1.0" encoding="UTF-8"?>
<svg xmlns="http://www.w3.org/2000/svg" xmlns:xlink="http://www.w3.org/1999/xlink" version="1.1" id="Capa_1" x="0px" y="0px" viewBox="0 0 512 512" style="enable-background:new 0 0 512 512;" xml:space="preserve" width="512" height="512">
<g>
	<path style="fill:#D2F7FF;" d="M217.173,84.967V54.094h-62.125v30.874l0,0c-38.09,19.16-62.125,58.156-62.125,100.793v287.737&#10;&#9;&#9;c0,17.121,13.879,31,31,31h124.374c17.121,0,31-13.879,31-31V185.76C279.297,143.123,255.262,104.128,217.173,84.967&#10;&#9;&#9;L217.173,84.967z"/>
	<path style="fill:#99E6FC;" d="M122.923,473.498V185.76c0-41.262,22.51-79.114,58.484-98.878c2.241-1.231,3.641-3.576,3.641-6.133&#10;&#9;&#9;V54.094h-30v30.874l0,0c-38.09,19.16-62.125,58.156-62.125,100.793v287.738c0,17.121,13.879,31,31,31h30&#10;&#9;&#9;C136.802,504.498,122.923,490.619,122.923,473.498z"/>
	<rect x="139.517" y="7.5" style="fill:#01C1FF;" width="93.187" height="46.594"/>
	<rect x="139.517" y="7.5" style="fill:#01A3EC;" width="30" height="46.594"/>
	<path style="fill:none;stroke:#000000;stroke-width:15;stroke-linecap:round;stroke-linejoin:round;stroke-miterlimit:10;" d="&#10;&#9;&#9;M92.924,279.919V473.5c0,17.12,13.88,31,31,31h124.37c2.66,0,5.24-0.34,7.71-0.97"/>
	<path style="fill:none;stroke:#000000;stroke-width:15;stroke-linecap:round;stroke-linejoin:round;stroke-miterlimit:10;" d="&#10;&#9;&#9;M92.924,247.229v-61.47c0-21.32,6.01-41.73,16.78-59.2s26.29-32.01,45.34-41.59v-30.87h62.13v30.87&#10;&#9;&#9;c25.93,13.04,45.34,35.27,55.08,61.58"/>
	<rect x="92.923" y="193.874" style="fill:#01C1FF;" width="186.374" height="139.781"/>
	<rect x="92.923" y="193.874" style="fill:#01A3EC;" width="30" height="139.781"/>
	
		<polyline style="fill:none;stroke:#000000;stroke-width:15;stroke-linecap:round;stroke-linejoin:round;stroke-miterlimit:10;" points="&#10;&#9;&#9;92.924,279.919 92.924,333.659 248.235,333.659 &#9;"/>
	
		<polyline style="fill:none;stroke:#000000;stroke-width:15;stroke-linecap:round;stroke-linejoin:round;stroke-miterlimit:10;" points="&#10;&#9;&#9;92.924,247.229 92.924,193.879 239.475,193.879 &#9;"/>
	<path style="fill:#D2F7FF;" d="M211.87,276.457c0,14.227-11.533,25.76-25.76,25.76c-14.227,0-25.76-11.533-25.76-25.76&#10;&#9;&#9;s25.76-51.52,25.76-51.52S211.87,262.23,211.87,276.457z"/>
	<path style="fill:none;stroke:#000000;stroke-width:15;stroke-linecap:round;stroke-linejoin:round;stroke-miterlimit:10;" d="&#10;&#9;&#9;M211.87,276.457c0,14.227-11.533,25.76-25.76,25.76c-14.227,0-25.76-11.533-25.76-25.76s25.76-51.52,25.76-51.52&#10;&#9;&#9;S211.87,262.23,211.87,276.457z"/>
	
		<line style="fill:none;stroke:#000000;stroke-width:15;stroke-linecap:round;stroke-linejoin:round;stroke-miterlimit:10;" x1="246.145" y1="380.25" x2="92.924" y2="380.25"/>
	
		<line style="fill:none;stroke:#000000;stroke-width:15;stroke-linecap:round;stroke-linejoin:round;stroke-miterlimit:10;" x1="154.235" y1="426.84" x2="92.924" y2="426.84"/>
	
		<line style="fill:none;stroke:#000000;stroke-width:15;stroke-linecap:round;stroke-linejoin:round;stroke-miterlimit:10;" x1="232.735" y1="426.84" x2="186.925" y2="426.84"/>
	
		<rect x="139.517" y="7.5" style="fill:none;stroke:#000000;stroke-width:15;stroke-linecap:round;stroke-linejoin:round;stroke-miterlimit:10;" width="93.187" height="46.594"/>
	<path style="fill:#D2F7FF;" d="M356.953,131.561v-30.874h-62.125v30.874l0,0c-38.09,19.16-62.125,58.156-62.125,100.793v6.281&#10;&#9;&#9;c0,11.419,2.659,22.682,7.766,32.896l0,0c5.107,10.214,7.766,21.476,7.766,32.896v58.458c0,11.419-2.659,22.682-7.766,32.896l0,0&#10;&#9;&#9;c-5.107,10.214-7.766,21.476-7.766,32.896v44.823c0,17.121,13.879,31,31,31h124.374c17.121,0,31-13.879,31-31V428.77&#10;&#9;&#9;c0-11.359-2.631-22.564-7.686-32.736l-0.159-0.319c-5.055-10.172-7.686-21.377-7.686-32.736v-58.552&#10;&#9;&#9;c0-11.419,2.659-22.682,7.766-32.896v0c5.107-10.214,7.766-21.476,7.766-32.896v-6.281&#10;&#9;&#9;C419.078,189.717,395.043,150.721,356.953,131.561L356.953,131.561z"/>
	<path style="fill:#01C1FF;" d="M416.993,411.5l0.018-0.042c-1.288-5.317-3.169-10.492-5.62-15.424l-0.159-0.319&#10;&#9;&#9;c-5.055-10.172-7.686-21.377-7.686-32.736v-58.552c0-11.419,2.659-22.682,7.766-32.896v0c2.48-4.961,4.383-10.169,5.684-15.523&#10;&#9;&#9;l-0.003-0.008H234.788l-0.004,0.005c1.301,5.355,3.204,10.564,5.685,15.526v0c5.107,10.214,7.766,21.476,7.766,32.896v58.458&#10;&#9;&#9;c0,11.419-2.659,22.682-7.766,32.896v0c-2.503,5.007-4.418,10.266-5.72,15.672l0.039,0.047H416.993z"/>
	<path style="fill:#99E6FC;" d="M264.783,255.999c-1.376-5.666-2.079-11.494-2.079-17.364v-6.281&#10;&#9;&#9;c0-41.262,22.51-79.114,58.484-98.878c2.241-1.231,3.641-3.576,3.641-6.133v-26.656h-30v30.874&#10;&#9;&#9;c-38.09,19.16-62.125,58.156-62.125,100.793v6.281c0,5.872,0.703,11.702,2.08,17.369l0.004-0.005H264.783z"/>
	<path style="fill:#99E6FC;" d="M264.738,411.5h-29.949l-0.039-0.047c0,0,0-0.001,0-0.001c-1.354,5.622-2.046,11.403-2.046,17.224&#10;&#9;&#9;v44.823c0,17.121,13.879,31,31,31h30c-17.121,0-31-13.879-31-31v-44.823C262.704,422.87,263.391,417.106,264.738,411.5z"/>
	<path style="fill:#01A3EC;" d="M234.788,411.5h29.949c1.302-5.423,3.221-10.698,5.732-15.72v0&#10;&#9;&#9;c5.107-10.214,7.766-21.476,7.766-32.896v-58.458c0-11.419-2.659-22.682-7.766-32.896v0c-2.482-4.963-4.385-10.175-5.686-15.531&#10;&#9;&#9;h-29.995l-0.004,0.005c1.301,5.355,3.204,10.564,5.685,15.526v0c5.107,10.214,7.766,21.476,7.766,32.896v58.458&#10;&#9;&#9;c0,11.419-2.659,22.682-7.766,32.896v0c-2.503,5.007-4.418,10.266-5.72,15.671c0,0,0,0.001,0,0.001L234.788,411.5z"/>
	<rect x="279.297" y="54.094" style="fill:#01C1FF;" width="93.187" height="46.594"/>
	<rect x="279.297" y="54.094" style="fill:#01A3EC;" width="30" height="46.594"/>
	<path style="fill:none;stroke:#000000;stroke-width:15;stroke-linecap:round;stroke-linejoin:round;stroke-miterlimit:10;" d="&#10;&#9;&#9;M403.546,349.999v12.98c0,11.36,2.63,22.56,7.69,32.73l0.16,0.32c5.05,10.18,7.68,21.38,7.68,32.74v44.73c0,17.12-13.88,31-31,31&#10;&#9;&#9;h-124.37c-17.12,0-31-13.88-31-31v-44.82c0-5.71,0.67-11.38,1.97-16.9s3.24-10.9,5.79-16c5.11-10.21,7.77-21.48,7.77-32.9v-58.45&#10;&#9;&#9;c0-5.71-0.66-11.38-1.97-16.9c-1.3-5.53-3.25-10.89-5.8-16c-5.1-10.21-7.76-21.48-7.76-32.89v-6.28c0-21.32,6.01-41.73,16.78-59.2&#10;&#9;&#9;c10.77-17.48,26.29-32.02,45.34-41.6v-30.87h62.13v30.87c38.09,19.16,62.12,58.16,62.12,100.8v6.28c0,5.7-0.66,11.38-1.97,16.9&#10;&#9;&#9;c-1.3,5.52-3.24,10.88-5.79,15.99c-5.11,10.21-7.77,21.48-7.77,32.9v12.88"/>
	<path style="fill:#D2F7FF;" d="M351.651,341.682c0,14.227-11.533,25.76-25.76,25.76c-14.227,0-25.76-11.533-25.76-25.76&#10;&#9;&#9;c0-14.227,25.76-51.52,25.76-51.52S351.651,327.455,351.651,341.682z"/>
	<path style="fill:none;stroke:#000000;stroke-width:15;stroke-linecap:round;stroke-linejoin:round;stroke-miterlimit:10;" d="&#10;&#9;&#9;M351.651,341.682c0,14.227-11.533,25.76-25.76,25.76c-14.227,0-25.76-11.533-25.76-25.76c0-14.227,25.76-51.52,25.76-51.52&#10;&#9;&#9;S351.651,327.455,351.651,341.682z"/>
	
		<rect x="279.297" y="54.094" style="fill:none;stroke:#000000;stroke-width:15;stroke-linecap:round;stroke-linejoin:round;stroke-miterlimit:10;" width="93.187" height="46.594"/>
	
		<line style="fill:none;stroke:#000000;stroke-width:15;stroke-linecap:round;stroke-linejoin:round;stroke-miterlimit:10;" x1="234.788" y1="255.999" x2="416.994" y2="255.999"/>
	
		<line style="fill:none;stroke:#000000;stroke-width:15;stroke-linecap:round;stroke-linejoin:round;stroke-miterlimit:10;" x1="234.788" y1="411.5" x2="416.994" y2="411.5"/>
</g>















</svg>
