<?xml version="1.0" encoding="UTF-8"?>
<svg xmlns="http://www.w3.org/2000/svg" xmlns:xlink="http://www.w3.org/1999/xlink" version="1.1" id="Capa_1" x="0px" y="0px" viewBox="0 0 512 512" style="enable-background:new 0 0 512 512;" xml:space="preserve" width="512" height="512">
<g>
	<path style="fill:#F6A96C;" d="M496.5,329.135h-481c-4.418,0-8-3.582-8-8v-27.773c0-4.418,3.582-8,8-8h481c4.418,0,8,3.582,8,8&#10;&#9;&#9;v27.773C504.5,325.553,500.918,329.135,496.5,329.135z"/>
	<path style="fill:#EA9B58;" d="M496.5,285.362H454v14.906c0,4.418-3.582,8-8,8H7.5v12.867c0,4.418,3.582,8,8,8h481&#10;&#9;&#9;c4.418,0,8-3.582,8-8v-27.773C504.5,288.943,500.918,285.362,496.5,285.362z"/>
	<path style="fill:none;stroke:#000000;stroke-width:15;stroke-linecap:round;stroke-linejoin:round;stroke-miterlimit:10;" d="&#10;&#9;&#9;M70,285.362H15.5c-4.418,0-8,3.582-8,8v27.773c0,4.418,3.582,8,8,8h481c4.418,0,8-3.582,8-8v-27.773c0-4.418-3.582-8-8-8H105"/>
	<path style="fill:#8AC9FE;" d="M253.436,77.683l-37.827,62.273c-19.13,31.494,3.542,71.793,40.391,71.793h0&#10;&#9;&#9;c36.849,0,59.521-40.299,40.391-71.793l-37.827-62.273C257.396,75.76,254.604,75.76,253.436,77.683z"/>
	<path style="fill:#60B7FF;" d="M296.391,139.956l-37.827-62.273c-1.168-1.923-3.96-1.923-5.128,0l-13.102,21.57l24.725,40.703&#10;&#9;&#9;c16.233,26.725,2.363,59.785-24.725,69.186c4.834,1.678,10.086,2.607,15.666,2.607h0&#10;&#9;&#9;C292.849,211.749,315.521,171.45,296.391,139.956z"/>
	<path style="fill:none;stroke:#000000;stroke-width:15;stroke-linecap:round;stroke-linejoin:round;stroke-miterlimit:10;" d="&#10;&#9;&#9;M213.819,143.173c-15.79,30.951,6.576,68.576,42.181,68.576h0c36.849,0,59.521-40.299,40.391-71.793l-37.827-62.273&#10;&#9;&#9;c-1.168-1.923-3.96-1.923-5.128,0l-21.563,35.499"/>
	<g>
		<path style="fill:#C8EFFE;" d="M93.255,359.98l-20.802,34.246c-11.067,18.219,2.049,41.533,23.366,41.533h0&#10;&#9;&#9;&#9;c21.317,0,34.433-23.313,23.366-41.533L98.383,359.98C97.215,358.057,94.423,358.057,93.255,359.98z"/>
		<path style="fill:#99E6FC;" d="M119.185,394.227L98.383,359.98c-1.168-1.923-3.96-1.923-5.128,0L85.6,372.582l13.148,21.645&#10;&#9;&#9;&#9;c9.156,15.074,1.751,33.62-13.148,39.58c3.109,1.244,6.538,1.952,10.218,1.952h0C117.136,435.759,130.252,412.446,119.185,394.227&#10;&#9;&#9;&#9;z"/>
		<path style="fill:#C8EFFE;" d="M200.042,359.98l-20.802,34.246c-11.067,18.219,2.049,41.533,23.366,41.533h0&#10;&#9;&#9;&#9;c21.317,0,34.433-23.313,23.366-41.533L205.17,359.98C204.002,358.057,201.211,358.057,200.042,359.98z"/>
		<path style="fill:#99E6FC;" d="M225.973,394.227L205.17,359.98c-1.168-1.923-3.96-1.923-5.128,0l-7.93,13.055l12.872,21.191&#10;&#9;&#9;&#9;c9.1,14.981,1.843,33.394-12.872,39.471c3.181,1.314,6.705,2.062,10.494,2.062h0C223.924,435.759,237.04,412.446,225.973,394.227z&#10;&#9;&#9;&#9;"/>
		<path style="fill:#C8EFFE;" d="M306.83,359.98l-20.802,34.246c-11.067,18.219,2.049,41.533,23.366,41.533h0&#10;&#9;&#9;&#9;c21.317,0,34.433-23.313,23.366-41.533l-20.802-34.246C310.789,358.057,307.998,358.057,306.83,359.98z"/>
		<path style="fill:#99E6FC;" d="M332.76,394.227l-20.802-34.246c-1.168-1.923-3.96-1.923-5.128,0l-7.824,12.88l12.978,21.366&#10;&#9;&#9;&#9;c9.121,15.016,1.808,33.481-12.978,39.513c3.154,1.287,6.64,2.02,10.388,2.02h0C330.711,435.759,343.827,412.446,332.76,394.227z"/>
		<path style="fill:#C8EFFE;" d="M413.617,359.98l-20.802,34.246c-11.067,18.219,2.049,41.533,23.366,41.533h0&#10;&#9;&#9;&#9;c21.317,0,34.433-23.313,23.366-41.533l-20.802-34.246C417.577,358.057,414.785,358.057,413.617,359.98z"/>
		<path style="fill:#99E6FC;" d="M439.547,394.227l-20.802-34.246c-1.168-1.923-3.96-1.923-5.128,0l-7.836,12.899l12.967,21.347&#10;&#9;&#9;&#9;c9.119,15.013,1.811,33.471-12.967,39.508c3.157,1.29,6.647,2.024,10.399,2.024h0&#10;&#9;&#9;&#9;C437.498,435.759,450.614,412.446,439.547,394.227z"/>
	</g>
	<g>
		
			<line style="fill:none;stroke:#000000;stroke-width:15;stroke-linecap:round;stroke-linejoin:round;stroke-miterlimit:10;" x1="32" y1="250.495" x2="48" y2="250.495"/>
		
			<line style="fill:none;stroke:#000000;stroke-width:15;stroke-linecap:round;stroke-linejoin:round;stroke-miterlimit:10;" x1="80" y1="250.495" x2="96" y2="250.495"/>
		
			<line style="fill:none;stroke:#000000;stroke-width:15;stroke-linecap:round;stroke-linejoin:round;stroke-miterlimit:10;" x1="128" y1="250.495" x2="144" y2="250.495"/>
		
			<line style="fill:none;stroke:#000000;stroke-width:15;stroke-linecap:round;stroke-linejoin:round;stroke-miterlimit:10;" x1="176" y1="250.495" x2="192" y2="250.495"/>
		
			<line style="fill:none;stroke:#000000;stroke-width:15;stroke-linecap:round;stroke-linejoin:round;stroke-miterlimit:10;" x1="224" y1="250.495" x2="240" y2="250.495"/>
		
			<line style="fill:none;stroke:#000000;stroke-width:15;stroke-linecap:round;stroke-linejoin:round;stroke-miterlimit:10;" x1="272" y1="250.495" x2="288" y2="250.495"/>
		
			<line style="fill:none;stroke:#000000;stroke-width:15;stroke-linecap:round;stroke-linejoin:round;stroke-miterlimit:10;" x1="320" y1="250.495" x2="336" y2="250.495"/>
		
			<line style="fill:none;stroke:#000000;stroke-width:15;stroke-linecap:round;stroke-linejoin:round;stroke-miterlimit:10;" x1="368" y1="250.495" x2="384" y2="250.495"/>
		
			<line style="fill:none;stroke:#000000;stroke-width:15;stroke-linecap:round;stroke-linejoin:round;stroke-miterlimit:10;" x1="416" y1="250.495" x2="432" y2="250.495"/>
		
			<line style="fill:none;stroke:#000000;stroke-width:15;stroke-linecap:round;stroke-linejoin:round;stroke-miterlimit:10;" x1="464" y1="250.495" x2="480" y2="250.495"/>
	</g>
	<g>
		<g>
			<g>
				
					<line style="fill:none;stroke:#000000;stroke-width:15;stroke-linecap:round;stroke-linejoin:round;stroke-miterlimit:10;" x1="63.809" y1="136.749" x2="63.809" y2="211.749"/>
				
					<polyline style="fill:none;stroke:#000000;stroke-width:15;stroke-linecap:round;stroke-linejoin:round;stroke-miterlimit:10;" points="&#10;&#9;&#9;&#9;&#9;&#9;43,190.941 63.809,211.749 84.617,190.941 &#9;&#9;&#9;&#9;"/>
			</g>
			<g>
				
					<line style="fill:none;stroke:#000000;stroke-width:15;stroke-linecap:round;stroke-linejoin:round;stroke-miterlimit:10;" x1="143.191" y1="136.749" x2="143.191" y2="211.749"/>
				
					<polyline style="fill:none;stroke:#000000;stroke-width:15;stroke-linecap:round;stroke-linejoin:round;stroke-miterlimit:10;" points="&#10;&#9;&#9;&#9;&#9;&#9;122.383,190.941 143.191,211.749 164,190.941 &#9;&#9;&#9;&#9;"/>
			</g>
		</g>
		<g>
			<g>
				
					<line style="fill:none;stroke:#000000;stroke-width:15;stroke-linecap:round;stroke-linejoin:round;stroke-miterlimit:10;" x1="368.809" y1="136.749" x2="368.809" y2="211.749"/>
				
					<polyline style="fill:none;stroke:#000000;stroke-width:15;stroke-linecap:round;stroke-linejoin:round;stroke-miterlimit:10;" points="&#10;&#9;&#9;&#9;&#9;&#9;348,190.941 368.809,211.749 389.617,190.941 &#9;&#9;&#9;&#9;"/>
			</g>
			<g>
				
					<line style="fill:none;stroke:#000000;stroke-width:15;stroke-linecap:round;stroke-linejoin:round;stroke-miterlimit:10;" x1="448.191" y1="136.749" x2="448.191" y2="211.749"/>
				
					<polyline style="fill:none;stroke:#000000;stroke-width:15;stroke-linecap:round;stroke-linejoin:round;stroke-miterlimit:10;" points="&#10;&#9;&#9;&#9;&#9;&#9;427.383,190.941 448.191,211.749 469,190.941 &#9;&#9;&#9;&#9;"/>
			</g>
		</g>
	</g>
	<path style="fill:none;stroke:#000000;stroke-width:15;stroke-linecap:round;stroke-linejoin:round;stroke-miterlimit:10;" d="&#10;&#9;&#9;M93.255,359.98l-20.802,34.246c-11.067,18.219,2.049,41.533,23.366,41.533h0c21.317,0,34.433-23.313,23.366-41.533L98.383,359.98&#10;&#9;&#9;C97.215,358.057,94.423,358.057,93.255,359.98z"/>
	<path style="fill:none;stroke:#000000;stroke-width:15;stroke-linecap:round;stroke-linejoin:round;stroke-miterlimit:10;" d="&#10;&#9;&#9;M200.042,359.98l-20.802,34.246c-11.067,18.219,2.049,41.533,23.366,41.533h0c21.317,0,34.433-23.313,23.366-41.533L205.17,359.98&#10;&#9;&#9;C204.002,358.057,201.211,358.057,200.042,359.98z"/>
	<path style="fill:none;stroke:#000000;stroke-width:15;stroke-linecap:round;stroke-linejoin:round;stroke-miterlimit:10;" d="&#10;&#9;&#9;M306.83,359.98l-20.802,34.246c-11.067,18.219,2.049,41.533,23.366,41.533h0c21.317,0,34.433-23.313,23.366-41.533l-20.802-34.246&#10;&#9;&#9;C310.789,358.057,307.998,358.057,306.83,359.98z"/>
	<path style="fill:none;stroke:#000000;stroke-width:15;stroke-linecap:round;stroke-linejoin:round;stroke-miterlimit:10;" d="&#10;&#9;&#9;M392.181,421.495c4.511,8.275,13.199,14.264,24,14.264h0c21.317,0,34.433-23.313,23.366-41.533l-20.802-34.246&#10;&#9;&#9;c-1.168-1.923-3.96-1.923-5.128,0l-16.106,26.515"/>
</g>















</svg>
