<svg id="Capa_1" enable-background="new 0 0 510.001 510.001" height="512" viewBox="0 0 510.001 510.001" width="512" xmlns="http://www.w3.org/2000/svg"><path d="m459.382 164.616-113.998-113.998-6.279 6.279c-6.218-6.218-16.3-6.218-22.518 0l-9.31 9.31c-4.852 4.852-7.578 11.434-7.578 18.296v10.935c0 6.862-2.726 13.444-7.578 18.296l-.157.157c-3.229 3.229-7.256 5.547-11.671 6.716l-30.553 8.093c-4.415 1.169-8.442 3.486-11.671 6.716l-223.404 223.403c-5.062 5.062-6.123 12.883-2.601 19.115 28.884 51.117 68.885 91.117 120.002 120.002 6.233 3.522 14.053 2.461 19.115-2.601l223.404-223.404c3.229-3.229 5.547-7.256 6.716-11.671l8.092-30.551c1.169-4.415 3.487-8.442 6.716-11.671l.157-.157c4.852-4.852 11.434-7.578 18.296-7.578h10.935c6.862 0 13.444-2.726 18.296-7.578l9.31-9.31c6.218-6.218 6.218-16.3 0-22.518z" fill="#00ccf2"/><path d="m453.1 193.411-9.31 9.31c-2.64 2.64-5.79 4.65-9.22 5.94l-133.22-133.23c1.28-3.43 3.29-6.58 5.93-9.22l9.31-9.31c6.22-6.22 16.3-6.22 22.52 0l113.99 113.99c6.22 6.22 6.22 16.3 0 22.52z" fill="#99ebfa"/><path d="m466.114 76.044.106.106 27.59-27.59c-9.68-11.84-20.53-22.69-32.37-32.37l-27.59 27.59.107.107c-18.952-14.934-40.07-25.784-62.186-32.519l-43.924 34.27 136.516 136.516 34.27-43.924c-6.736-22.116-17.586-43.234-32.519-62.186z" fill="#6d92ac"/><path d="m479.404 77.109 13.559-13.559c3.461 3.437 9.012 3.91 13.032.897 4.42-3.311 5.32-9.578 2.009-13.999-13.768-18.383-30.07-34.685-48.453-48.453-4.42-3.311-10.687-2.412-13.999 2.009-3.012 4.021-2.54 9.57.897 13.032l-13.559 13.559c-17.714-12.683-37.422-22.464-58.208-28.794-3.113-.947-6.497-.321-9.064 1.682l-43.924 34.27c-2.042 1.593-3.377 3.908-3.745 6.451-3.135 1.296-6.021 3.202-8.44 5.626l-9.3 9.31c-3.35 3.34-5.97 7.26-7.78 11.63-1.81 4.38-2.73 9-2.73 13.73v10.94c0 4.24-1.65 8.23-4.65 11.22l-.16.16c-1.98 1.98-4.45 3.4-7.16 4.12l-30.55 8.09c-6.11 1.62-11.71 4.84-16.18 9.31l-.82.83c-1.89 1.89-2.93 4.4-2.93 7.07s1.04 5.18 2.93 7.07c1.88 1.89 4.4 2.93 7.07 2.93s5.18-1.04 7.07-2.93l.82-.82c1.98-1.98 4.46-3.41 7.16-4.12l30.55-8.1c6.12-1.62 11.71-4.84 16.18-9.31l.16-.15c3.35-3.35 5.97-7.27 7.78-11.64 1.501-3.633 2.39-7.432 2.649-11.321l102.532 102.532c-3.89.26-7.688 1.148-11.321 2.649-4.37 1.81-8.29 4.43-11.63 7.78l-.16.16c-4.47 4.47-7.69 10.06-9.31 16.18l-8.09 30.55c-.72 2.71-2.15 5.18-4.13 7.16l-223.4 223.4c-1.11 1.12-2.61 1.73-4.2 1.74-1.04 0-2.02-.26-2.92-.77-49.95-28.25-87.97-66.26-116.22-116.21-.51-.91-.77-1.89-.77-2.93 0-1.59.62-3.08 1.74-4.2l158.94-158.94c1.89-1.89 2.93-4.4 2.93-7.07s-1.04-5.19-2.93-7.07c-1.89-1.89-4.4-2.93-7.07-2.93s-5.18 1.04-7.07 2.92v.01l-158.949 158.941c-2.45 2.45-4.36 5.32-5.67 8.53-1.28 3.13-1.92 6.43-1.92 9.81 0 4.46 1.16 8.87 3.36 12.77 14.79 26.19 32.72 49.9 53.3 70.48s44.3 38.52 70.49 53.3c3.88 2.2 8.29 3.36 12.75 3.36h.03c3.37 0 6.67-.65 9.8-1.93 3.2-1.31 6.07-3.21 8.52-5.66l223.41-223.41c4.47-4.47 7.69-10.07 9.31-16.18l8.09-30.55c.71-2.71 2.14-5.18 4.12-7.16l.16-.16c3-3 6.98-4.65 11.22-4.65h10.94c4.73 0 9.35-.92 13.73-2.73 4.37-1.81 8.29-4.43 11.63-7.78l9.31-9.31c2.423-2.418 4.327-5.299 5.623-8.429 2.543-.367 4.86-1.703 6.454-3.745l34.27-43.924c2.003-2.567 2.631-5.949 1.682-9.064-6.331-20.788-16.112-40.496-28.795-58.21zm-17.418-47.322c6.426 5.717 12.511 11.802 18.228 18.228l-13.33 13.331c-2.836-3.226-5.778-6.365-8.82-9.408-3.043-3.042-6.182-5.984-9.408-8.82zm-15.956 156.553-9.31 9.31c-.17.17-.343.335-.518.496l-122.348-122.347c.161-.176.326-.349.496-.519l9.31-9.31c1.13-1.13 2.58-1.73 4.19-1.74 1.61.01 3.05.61 4.18 1.74.066.066.133.131.201.195l113.597 113.597c.066.07.133.14.202.208 1.12 1.12 1.72 2.57 1.74 4.18-.02 1.61-.62 3.061-1.74 4.19zm17.406-19.254-120.521-120.521 30.839-24.061c26.254 8.839 50.426 23.834 70.167 43.575s34.736 43.912 43.575 70.167zm-268.006.975c0-5.523 4.477-10 10-10s10 4.477 10 10-4.477 10-10 10-10-4.477-10-10z"/></svg>