<svg clip-rule="evenodd" fill-rule="evenodd" height="512" image-rendering="optimizeQuality" shape-rendering="geometricPrecision" text-rendering="geometricPrecision" viewBox="0 0 1707 1707" width="512" xmlns="http://www.w3.org/2000/svg"><g id="Layer_x0020_1"><g fill-rule="nonzero"><path d="m20 1053c-26 0-26 40 0 40h40c296 301 311-13 444-8 116 4 203 249 340 75 1 0 1-1 2-2 67-92 143-47 220-2 104 62 210 124 317-50 42-61 121-19 167 17 31 24 58 53 75 75 9 12 38 8 62 8 26 0 26-40 0-40h-37c-56-70-184-179-276-108-6 5-20 18-25 26-86 142-176 89-263 38-93-55-184-109-272 13h-1c-61 84-120 28-167-14-45-39-84-74-141-76-60-2-97 37-134 75-57 59-114 118-287-60-11-12-39-7-64-7z"/><path d="m20 1281c-26 0-26 40 0 40h40c296 301 311-13 444-8 116 4 203 249 340 75 1 0 1-1 2-2 67-92 143-47 220-2 104 62 210 124 317-50 42-61 121-19 167 17 31 24 58 53 75 75 9 12 38 8 62 8 26 0 26-40 0-40h-37c-56-70-184-179-276-108-6 5-20 18-25 26-86 142-176 89-263 38-93-55-184-109-272 13h-1c-61 84-120 28-167-14-45-39-84-74-141-76-60-2-97 37-134 75-57 59-114 118-287-60-11-12-39-7-64-7z"/><path d="m20 1509c-26 0-26 40 0 40h40c296 301 311-13 444-8 116 4 203 249 340 75 1 0 1-1 2-2 67-92 143-47 220-2 104 62 210 124 317-50 42-61 121-19 167 17 31 24 58 53 75 75 9 12 38 8 62 8 26 0 26-40 0-40h-37c-56-70-184-179-276-108-6 5-20 18-25 26-86 142-176 89-263 38-93-55-184-109-272 13-1 0-1 0-1 0-61 84-120 28-167-14-45-39-84-74-141-76-60-2-97 37-134 75-57 59-114 118-287-60-11-12-39-7-64-7z"/><path d="m793 348c-476 596 100 740 178 470 29-100-7-256-178-470zm-216 481c-33-114 7-289 199-523 9-12 24-12 32-2 549 667-135 857-231 525z"/><path d="m933 791c0-27-40-27-40 0 0 22-8 41-23 56-24 24-61 30-91 15-24-12-42 24-18 35 46 23 101 14 138-22 0-1 34-31 34-84z"/><path d="m335 81c-389 489 81 605 145 385 23-82-6-210-145-385zm-184 396c-27-95 6-242 167-439 9-12 24-11 32-1 461 560-117 722-199 440z"/><path d="m1348 81c-389 489 81 605 145 385 24-82-6-210-145-385zm-183 396c-28-95 5-242 166-439 9-12 24-11 32-1 461 560-117 722-198 440z"/></g><path d="m971 818c29-100-7-256-178-470-476 596 100 740 178 470zm-78-27c0-27 40-27 40 0 0 53-34 83-34 84-37 36-92 45-138 22-24-11-6-47 18-35 52 26 114-12 114-71z" fill="#77b5fe"/><path d="m480 466c23-82-6-210-145-385-389 489 81 605 145 385z" fill="#85bcfe"/><path d="m1348 81c-389 489 81 605 145 385 24-82-6-210-145-385z" fill="#85bcfe"/></g></svg>